<?xml version="1.0" encoding="UTF-8" standalone="no"?>
<!DOCTYPE svg PUBLIC "-//W3C//DTD SVG 1.1//EN"
 "http://www.w3.org/Graphics/SVG/1.1/DTD/svg11.dtd">
<!-- Generated by graphviz version 2.44.1 (20220725.1945)
 -->
<!-- Title: cmake_init::cmake_init_lib::PrintGreeting::Print Pages: 1 -->
<svg width="280pt" height="76pt"
 viewBox="0.00 0.00 280.00 75.50" xmlns="http://www.w3.org/2000/svg" xmlns:xlink="http://www.w3.org/1999/xlink">
<g id="graph0" class="graph" transform="scale(1 1) rotate(0) translate(4 71.5)">
<title>cmake_init::cmake_init_lib::PrintGreeting::Print</title>
<!-- Node1 -->
<g id="node1" class="node">
<title>Node1</title>
<g id="a_node1"><a xlink:title=" ">
<polygon fill="#999999" stroke="#666666" points="272,-45.5 151,-45.5 151,-15.5 272,-15.5 272,-45.5"/>
<text text-anchor="start" x="159" y="-33.5" font-family="Helvetica,sans-Serif" font-size="10.00">cmake_init::cmake_init</text>
<text text-anchor="middle" x="211.5" y="-22.5" font-family="Helvetica,sans-Serif" font-size="10.00">_lib::PrintGreeting::Print</text>
</a>
</g>
</g>
<!-- Node2 -->
<g id="node2" class="node">
<title>Node2</title>
<g id="a_node2"><a xlink:href="classcmake__init_1_1_cmake_init.html#af99d4769e6534b9d9c144b8c986b180c" target="_top" xlink:title=" ">
<polygon fill="white" stroke="#666666" points="115,-67.5 0,-67.5 0,-37.5 115,-37.5 115,-67.5"/>
<text text-anchor="start" x="8" y="-55.5" font-family="Helvetica,sans-Serif" font-size="10.00">cmake_init::CmakeInit</text>
<text text-anchor="middle" x="57.5" y="-44.5" font-family="Helvetica,sans-Serif" font-size="10.00">::Greet</text>
</a>
</g>
</g>
<!-- Node1&#45;&gt;Node2 -->
<g id="edge1" class="edge">
<title>Node1&#45;&gt;Node2</title>
<path fill="none" stroke="#63b8ff" d="M140.94,-40.57C132.42,-41.8 123.79,-43.05 115.48,-44.25"/>
<polygon fill="#63b8ff" stroke="#63b8ff" points="141.47,-44.03 150.86,-39.13 140.46,-37.1 141.47,-44.03"/>
</g>
<!-- Node3 -->
<g id="node3" class="node">
<title>Node3</title>
<g id="a_node3"><a xlink:href="print__greeting__test_8cc.html#a30330244029536372cf989c63578a0a5" target="_top" xlink:title=" ">
<polygon fill="white" stroke="#666666" points="78.5,-19 36.5,-19 36.5,0 78.5,0 78.5,-19"/>
<text text-anchor="middle" x="57.5" y="-7" font-family="Helvetica,sans-Serif" font-size="10.00">TEST</text>
</a>
</g>
</g>
<!-- Node1&#45;&gt;Node3 -->
<g id="edge2" class="edge">
<title>Node1&#45;&gt;Node3</title>
<path fill="none" stroke="#63b8ff" d="M140.85,-20.88C118.13,-17.74 94.65,-14.49 78.6,-12.28"/>
<polygon fill="#63b8ff" stroke="#63b8ff" points="140.48,-24.36 150.86,-22.26 141.43,-17.42 140.48,-24.36"/>
</g>
</g>
</svg>
