<?xml version="1.0" encoding="UTF-8" standalone="no"?>
<!DOCTYPE svg PUBLIC "-//W3C//DTD SVG 1.1//EN"
 "http://www.w3.org/Graphics/SVG/1.1/DTD/svg11.dtd">
<!-- Generated by graphviz version 2.44.1 (20220725.1945)
 -->
<!-- Title: src/impl/cmake_init_lib.cc Pages: 1 -->
<svg width="356pt" height="159pt"
 viewBox="0.00 0.00 356.50 159.00" xmlns="http://www.w3.org/2000/svg" xmlns:xlink="http://www.w3.org/1999/xlink">
<g id="graph0" class="graph" transform="scale(1 1) rotate(0) translate(4 155)">
<title>src/impl/cmake_init_lib.cc</title>
<!-- Node1 -->
<g id="node1" class="node">
<title>Node1</title>
<g id="a_node1"><a xlink:title=" ">
<polygon fill="#999999" stroke="#666666" points="219.5,-151 118.5,-151 118.5,-121 219.5,-121 219.5,-151"/>
<text text-anchor="start" x="126.5" y="-139" font-family="Helvetica,sans-Serif" font-size="10.00">src/impl/cmake_init</text>
<text text-anchor="middle" x="169" y="-128" font-family="Helvetica,sans-Serif" font-size="10.00">_lib.cc</text>
</a>
</g>
</g>
<!-- Node2 -->
<g id="node2" class="node">
<title>Node2</title>
<g id="a_node2"><a xlink:href="cmake__init__lib_8h.html" target="_top" xlink:title=" ">
<polygon fill="white" stroke="#666666" points="112,-85 0,-85 0,-55 112,-55 112,-85"/>
<text text-anchor="start" x="8" y="-73" font-family="Helvetica,sans-Serif" font-size="10.00">cmake&#45;init/cmake_init</text>
<text text-anchor="middle" x="56" y="-62" font-family="Helvetica,sans-Serif" font-size="10.00">_lib.h</text>
</a>
</g>
</g>
<!-- Node1&#45;&gt;Node2 -->
<g id="edge1" class="edge">
<title>Node1&#45;&gt;Node2</title>
<path fill="none" stroke="#63b8ff" d="M144.2,-120.95C128.16,-111.87 107.07,-99.93 89.54,-90"/>
<polygon fill="#63b8ff" stroke="#63b8ff" points="91.17,-86.9 80.74,-85.01 87.72,-92.99 91.17,-86.9"/>
</g>
<!-- Node3 -->
<g id="node3" class="node">
<title>Node3</title>
<g id="a_node3"><a xlink:title=" ">
<polygon fill="#e0e0e0" stroke="#999999" points="173,-19 107,-19 107,0 173,0 173,-19"/>
<text text-anchor="middle" x="140" y="-7" font-family="Helvetica,sans-Serif" font-size="10.00">string_view</text>
</a>
</g>
</g>
<!-- Node1&#45;&gt;Node3 -->
<g id="edge4" class="edge">
<title>Node1&#45;&gt;Node3</title>
<path fill="none" stroke="#63b8ff" d="M165.67,-120.72C160.41,-98.12 150.16,-54.12 144.33,-29.09"/>
<polygon fill="#63b8ff" stroke="#63b8ff" points="147.67,-28.01 142,-19.07 140.86,-29.6 147.67,-28.01"/>
</g>
<!-- Node4 -->
<g id="node4" class="node">
<title>Node4</title>
<g id="a_node4"><a xlink:title=" ">
<polygon fill="#e0e0e0" stroke="#999999" points="229.5,-79.5 168.5,-79.5 168.5,-60.5 229.5,-60.5 229.5,-79.5"/>
<text text-anchor="middle" x="199" y="-67.5" font-family="Helvetica,sans-Serif" font-size="10.00">fmt/core.h</text>
</a>
</g>
</g>
<!-- Node1&#45;&gt;Node4 -->
<g id="edge3" class="edge">
<title>Node1&#45;&gt;Node4</title>
<path fill="none" stroke="#63b8ff" d="M175.66,-120.8C180.06,-111.41 185.87,-99.02 190.59,-88.95"/>
<polygon fill="#63b8ff" stroke="#63b8ff" points="193.78,-90.38 194.85,-79.84 187.44,-87.41 193.78,-90.38"/>
</g>
<!-- Node5 -->
<g id="node5" class="node">
<title>Node5</title>
<g id="a_node5"><a xlink:href="print__greeting_8h.html" target="_top" xlink:title=" ">
<polygon fill="white" stroke="#666666" points="348.5,-85 247.5,-85 247.5,-55 348.5,-55 348.5,-85"/>
<text text-anchor="start" x="255.5" y="-73" font-family="Helvetica,sans-Serif" font-size="10.00">cmake_init_lib/print</text>
<text text-anchor="middle" x="298" y="-62" font-family="Helvetica,sans-Serif" font-size="10.00">_greeting.h</text>
</a>
</g>
</g>
<!-- Node1&#45;&gt;Node5 -->
<g id="edge5" class="edge">
<title>Node1&#45;&gt;Node5</title>
<path fill="none" stroke="#63b8ff" d="M197.31,-120.95C215.88,-111.74 240.36,-99.6 260.54,-89.59"/>
<polygon fill="#63b8ff" stroke="#63b8ff" points="262.35,-92.59 269.76,-85.01 259.24,-86.32 262.35,-92.59"/>
</g>
<!-- Node2&#45;&gt;Node3 -->
<g id="edge2" class="edge">
<title>Node2&#45;&gt;Node3</title>
<path fill="none" stroke="#63b8ff" d="M76.33,-54.84C89.27,-45.83 105.99,-34.18 119.05,-25.09"/>
<polygon fill="#63b8ff" stroke="#63b8ff" points="121.21,-27.85 127.41,-19.27 117.21,-22.11 121.21,-27.85"/>
</g>
<!-- Node5&#45;&gt;Node3 -->
<g id="edge6" class="edge">
<title>Node5&#45;&gt;Node3</title>
<path fill="none" stroke="#63b8ff" d="M260.16,-54.99C233.56,-45.14 198.33,-32.1 172.9,-22.68"/>
<polygon fill="#63b8ff" stroke="#63b8ff" points="173.93,-19.33 163.33,-19.14 171.5,-25.89 173.93,-19.33"/>
</g>
</g>
</svg>
