<?xml version="1.0" encoding="UTF-8" standalone="no"?>
<!DOCTYPE svg PUBLIC "-//W3C//DTD SVG 1.1//EN"
 "http://www.w3.org/Graphics/SVG/1.1/DTD/svg11.dtd">
<!-- Generated by graphviz version 2.44.1 (20220725.1945)
 -->
<!-- Title: include/cmake&#45;init/cmake_init_lib.h Pages: 1 -->
<svg width="216pt" height="104pt"
 viewBox="0.00 0.00 216.00 104.00" xmlns="http://www.w3.org/2000/svg" xmlns:xlink="http://www.w3.org/1999/xlink">
<g id="graph0" class="graph" transform="scale(1 1) rotate(0) translate(4 100)">
<title>include/cmake&#45;init/cmake_init_lib.h</title>
<!-- Node1 -->
<g id="node1" class="node">
<title>Node1</title>
<g id="a_node1"><a xlink:title=" ">
<polygon fill="#999999" stroke="#666666" points="154,-96 59,-96 59,-66 154,-66 154,-96"/>
<text text-anchor="start" x="67" y="-84" font-family="Helvetica,sans-Serif" font-size="10.00">include/cmake&#45;init</text>
<text text-anchor="middle" x="106.5" y="-73" font-family="Helvetica,sans-Serif" font-size="10.00">/cmake_init_lib.h</text>
</a>
</g>
</g>
<!-- Node2 -->
<g id="node2" class="node">
<title>Node2</title>
<g id="a_node2"><a xlink:href="cmake__init__lib_8cc.html" target="_top" xlink:title=" ">
<polygon fill="white" stroke="#666666" points="101,-30 0,-30 0,0 101,0 101,-30"/>
<text text-anchor="start" x="8" y="-18" font-family="Helvetica,sans-Serif" font-size="10.00">src/impl/cmake_init</text>
<text text-anchor="middle" x="50.5" y="-7" font-family="Helvetica,sans-Serif" font-size="10.00">_lib.cc</text>
</a>
</g>
</g>
<!-- Node1&#45;&gt;Node2 -->
<g id="edge1" class="edge">
<title>Node1&#45;&gt;Node2</title>
<path fill="none" stroke="#63b8ff" d="M87.33,-58.09C79.24,-48.85 70.06,-38.36 62.89,-30.16"/>
<polygon fill="#63b8ff" stroke="#63b8ff" points="84.85,-60.58 94.07,-65.8 90.12,-55.97 84.85,-60.58"/>
</g>
<!-- Node3 -->
<g id="node3" class="node">
<title>Node3</title>
<g id="a_node3"><a xlink:href="main_8cc.html" target="_top" xlink:title=" ">
<polygon fill="white" stroke="#666666" points="208,-24.5 119,-24.5 119,-5.5 208,-5.5 208,-24.5"/>
<text text-anchor="middle" x="163.5" y="-12.5" font-family="Helvetica,sans-Serif" font-size="10.00">src/impl/main.cc</text>
</a>
</g>
</g>
<!-- Node1&#45;&gt;Node3 -->
<g id="edge2" class="edge">
<title>Node1&#45;&gt;Node3</title>
<path fill="none" stroke="#63b8ff" d="M125.85,-58.27C136.04,-46.84 147.97,-33.44 155.62,-24.84"/>
<polygon fill="#63b8ff" stroke="#63b8ff" points="123.19,-56 119.15,-65.8 128.41,-60.66 123.19,-56"/>
</g>
</g>
</svg>
