<?xml version="1.0" encoding="UTF-8" standalone="no"?>
<!DOCTYPE svg PUBLIC "-//W3C//DTD SVG 1.1//EN"
 "http://www.w3.org/Graphics/SVG/1.1/DTD/svg11.dtd">
<!-- Generated by graphviz version 2.44.1 (20220725.1945)
 -->
<!-- Title: src/impl/cmake_init_lib.cc Pages: 1 -->
<svg width="240pt" height="104pt"
 viewBox="0.00 0.00 239.50 104.00" xmlns="http://www.w3.org/2000/svg" xmlns:xlink="http://www.w3.org/1999/xlink">
<g id="graph0" class="graph" transform="scale(1 1) rotate(0) translate(4 100)">
<title>src/impl/cmake_init_lib.cc</title>
<!-- Node1 -->
<g id="node1" class="node">
<title>Node1</title>
<g id="a_node1"><a xlink:title=" ">
<polygon fill="#999999" stroke="#666666" points="168.5,-96 67.5,-96 67.5,-66 168.5,-66 168.5,-96"/>
<text text-anchor="start" x="75.5" y="-84" font-family="Helvetica,sans-Serif" font-size="10.00">src/impl/cmake_init</text>
<text text-anchor="middle" x="118" y="-73" font-family="Helvetica,sans-Serif" font-size="10.00">_lib.cc</text>
</a>
</g>
</g>
<!-- Node2 -->
<g id="node2" class="node">
<title>Node2</title>
<g id="a_node2"><a xlink:href="cmake__init__lib_8h.html" target="_top" xlink:title=" ">
<polygon fill="white" stroke="#666666" points="112,-30 0,-30 0,0 112,0 112,-30"/>
<text text-anchor="start" x="8" y="-18" font-family="Helvetica,sans-Serif" font-size="10.00">cmake&#45;init/cmake_init</text>
<text text-anchor="middle" x="56" y="-7" font-family="Helvetica,sans-Serif" font-size="10.00">_lib.h</text>
</a>
</g>
</g>
<!-- Node1&#45;&gt;Node2 -->
<g id="edge1" class="edge">
<title>Node1&#45;&gt;Node2</title>
<path fill="none" stroke="#63b8ff" d="M104.24,-65.8C96.21,-57.51 85.93,-46.89 76.91,-37.59"/>
<polygon fill="#63b8ff" stroke="#63b8ff" points="79.19,-34.91 69.72,-30.16 74.17,-39.78 79.19,-34.91"/>
</g>
<!-- Node3 -->
<g id="node3" class="node">
<title>Node3</title>
<g id="a_node3"><a xlink:href="print__greeting_8h.html" target="_top" xlink:title=" ">
<polygon fill="white" stroke="#666666" points="231.5,-30 130.5,-30 130.5,0 231.5,0 231.5,-30"/>
<text text-anchor="start" x="138.5" y="-18" font-family="Helvetica,sans-Serif" font-size="10.00">cmake_init_lib/print</text>
<text text-anchor="middle" x="181" y="-7" font-family="Helvetica,sans-Serif" font-size="10.00">_greeting.h</text>
</a>
</g>
</g>
<!-- Node1&#45;&gt;Node3 -->
<g id="edge2" class="edge">
<title>Node1&#45;&gt;Node3</title>
<path fill="none" stroke="#63b8ff" d="M131.98,-65.8C140.22,-57.43 150.8,-46.68 160.02,-37.31"/>
<polygon fill="#63b8ff" stroke="#63b8ff" points="162.54,-39.75 167.06,-30.16 157.55,-34.84 162.54,-39.75"/>
</g>
</g>
</svg>
