<?xml version="1.0" encoding="UTF-8" standalone="no"?>
<!DOCTYPE svg PUBLIC "-//W3C//DTD SVG 1.1//EN"
 "http://www.w3.org/Graphics/SVG/1.1/DTD/svg11.dtd">
<!-- Generated by graphviz version 2.44.1 (20220725.1945)
 -->
<!-- Title: src/impl/cmake_init_lib.cc Pages: 1 -->
<svg width="332pt" height="159pt"
 viewBox="0.00 0.00 332.00 159.00" xmlns="http://www.w3.org/2000/svg" xmlns:xlink="http://www.w3.org/1999/xlink">
<g id="graph0" class="graph" transform="scale(1 1) rotate(0) translate(4 155)">
<title>src/impl/cmake_init_lib.cc</title>
<!-- Node1 -->
<g id="node1" class="node">
<title>Node1</title>
<g id="a_node1"><a xlink:title=" ">
<polygon fill="#999999" stroke="#666666" points="195,-151 94,-151 94,-121 195,-121 195,-151"/>
<text text-anchor="start" x="102" y="-139" font-family="Helvetica,sans-Serif" font-size="10.00">src/impl/cmake_init</text>
<text text-anchor="middle" x="144.5" y="-128" font-family="Helvetica,sans-Serif" font-size="10.00">_lib.cc</text>
</a>
</g>
</g>
<!-- Node2 -->
<g id="node2" class="node">
<title>Node2</title>
<g id="a_node2"><a xlink:href="cmake__init__lib_8h.html" target="_top" xlink:title=" ">
<polygon fill="white" stroke="#666666" points="87,-79.5 0,-79.5 0,-60.5 87,-60.5 87,-79.5"/>
<text text-anchor="middle" x="43.5" y="-67.5" font-family="Helvetica,sans-Serif" font-size="10.00">cmake_init_lib.h</text>
</a>
</g>
</g>
<!-- Node1&#45;&gt;Node2 -->
<g id="edge1" class="edge">
<title>Node1&#45;&gt;Node2</title>
<path fill="none" stroke="#63b8ff" d="M122.08,-120.8C105.31,-110.17 82.49,-95.7 65.75,-85.1"/>
<polygon fill="#63b8ff" stroke="#63b8ff" points="67.48,-82.05 57.16,-79.66 63.74,-87.97 67.48,-82.05"/>
</g>
<!-- Node3 -->
<g id="node3" class="node">
<title>Node3</title>
<g id="a_node3"><a xlink:title=" ">
<polygon fill="#e0e0e0" stroke="#999999" points="148.5,-19 82.5,-19 82.5,0 148.5,0 148.5,-19"/>
<text text-anchor="middle" x="115.5" y="-7" font-family="Helvetica,sans-Serif" font-size="10.00">string_view</text>
</a>
</g>
</g>
<!-- Node1&#45;&gt;Node3 -->
<g id="edge4" class="edge">
<title>Node1&#45;&gt;Node3</title>
<path fill="none" stroke="#63b8ff" d="M141.17,-120.72C135.91,-98.12 125.66,-54.12 119.83,-29.09"/>
<polygon fill="#63b8ff" stroke="#63b8ff" points="123.17,-28.01 117.5,-19.07 116.36,-29.6 123.17,-28.01"/>
</g>
<!-- Node4 -->
<g id="node4" class="node">
<title>Node4</title>
<g id="a_node4"><a xlink:title=" ">
<polygon fill="#e0e0e0" stroke="#999999" points="205,-79.5 144,-79.5 144,-60.5 205,-60.5 205,-79.5"/>
<text text-anchor="middle" x="174.5" y="-67.5" font-family="Helvetica,sans-Serif" font-size="10.00">fmt/core.h</text>
</a>
</g>
</g>
<!-- Node1&#45;&gt;Node4 -->
<g id="edge3" class="edge">
<title>Node1&#45;&gt;Node4</title>
<path fill="none" stroke="#63b8ff" d="M151.16,-120.8C155.56,-111.41 161.37,-99.02 166.09,-88.95"/>
<polygon fill="#63b8ff" stroke="#63b8ff" points="169.28,-90.38 170.35,-79.84 162.94,-87.41 169.28,-90.38"/>
</g>
<!-- Node5 -->
<g id="node5" class="node">
<title>Node5</title>
<g id="a_node5"><a xlink:href="print__greeting_8h.html" target="_top" xlink:title=" ">
<polygon fill="white" stroke="#666666" points="324,-85 223,-85 223,-55 324,-55 324,-85"/>
<text text-anchor="start" x="231" y="-73" font-family="Helvetica,sans-Serif" font-size="10.00">cmake_init_lib/print</text>
<text text-anchor="middle" x="273.5" y="-62" font-family="Helvetica,sans-Serif" font-size="10.00">_greeting.h</text>
</a>
</g>
</g>
<!-- Node1&#45;&gt;Node5 -->
<g id="edge5" class="edge">
<title>Node1&#45;&gt;Node5</title>
<path fill="none" stroke="#63b8ff" d="M172.81,-120.95C191.38,-111.74 215.86,-99.6 236.04,-89.59"/>
<polygon fill="#63b8ff" stroke="#63b8ff" points="237.85,-92.59 245.26,-85.01 234.74,-86.32 237.85,-92.59"/>
</g>
<!-- Node2&#45;&gt;Node3 -->
<g id="edge2" class="edge">
<title>Node2&#45;&gt;Node3</title>
<path fill="none" stroke="#63b8ff" d="M54.12,-60.37C65.4,-51.21 83.42,-36.56 97.03,-25.51"/>
<polygon fill="#63b8ff" stroke="#63b8ff" points="99.28,-28.19 104.83,-19.17 94.86,-22.76 99.28,-28.19"/>
</g>
<!-- Node5&#45;&gt;Node3 -->
<g id="edge6" class="edge">
<title>Node5&#45;&gt;Node3</title>
<path fill="none" stroke="#63b8ff" d="M235.66,-54.99C209.06,-45.14 173.83,-32.1 148.4,-22.68"/>
<polygon fill="#63b8ff" stroke="#63b8ff" points="149.43,-19.33 138.83,-19.14 147,-25.89 149.43,-19.33"/>
</g>
</g>
</svg>
