<?xml version="1.0" encoding="UTF-8" standalone="no"?>
<!DOCTYPE svg PUBLIC "-//W3C//DTD SVG 1.1//EN"
 "http://www.w3.org/Graphics/SVG/1.1/DTD/svg11.dtd">
<!-- Generated by graphviz version 2.44.1 (20220725.1945)
 -->
<!-- Title: include/cmake_init_lib.h Pages: 1 -->
<svg width="204pt" height="93pt"
 viewBox="0.00 0.00 203.50 93.00" xmlns="http://www.w3.org/2000/svg" xmlns:xlink="http://www.w3.org/1999/xlink">
<g id="graph0" class="graph" transform="scale(1 1) rotate(0) translate(4 89)">
<title>include/cmake_init_lib.h</title>
<!-- Node1 -->
<g id="node1" class="node">
<title>Node1</title>
<g id="a_node1"><a xlink:title=" ">
<polygon fill="#999999" stroke="#666666" points="156.5,-85 58.5,-85 58.5,-55 156.5,-55 156.5,-85"/>
<text text-anchor="start" x="66.5" y="-73" font-family="Helvetica,sans-Serif" font-size="10.00">include/cmake_init</text>
<text text-anchor="middle" x="107.5" y="-62" font-family="Helvetica,sans-Serif" font-size="10.00">_lib.h</text>
</a>
</g>
</g>
<!-- Node2 -->
<g id="node2" class="node">
<title>Node2</title>
<g id="a_node2"><a xlink:href="cmake__init__lib_8cc.html" target="_top" xlink:title=" ">
<polygon fill="white" stroke="#666666" points="109,-19 0,-19 0,0 109,0 109,-19"/>
<text text-anchor="middle" x="54.5" y="-7" font-family="Helvetica,sans-Serif" font-size="10.00">src/cmake_init_lib.cc</text>
</a>
</g>
</g>
<!-- Node1&#45;&gt;Node2 -->
<g id="edge1" class="edge">
<title>Node1&#45;&gt;Node2</title>
<path fill="none" stroke="#63b8ff" d="M87.91,-47.38C79.09,-37.64 69.16,-26.69 62.44,-19.27"/>
<polygon fill="#63b8ff" stroke="#63b8ff" points="85.36,-49.78 94.67,-54.84 90.55,-45.08 85.36,-49.78"/>
</g>
<!-- Node3 -->
<g id="node3" class="node">
<title>Node3</title>
<g id="a_node3"><a xlink:href="main_8cc.html" target="_top" xlink:title=" ">
<polygon fill="white" stroke="#666666" points="195.5,-19 127.5,-19 127.5,0 195.5,0 195.5,-19"/>
<text text-anchor="middle" x="161.5" y="-7" font-family="Helvetica,sans-Serif" font-size="10.00">src/main.cc</text>
</a>
</g>
</g>
<!-- Node1&#45;&gt;Node3 -->
<g id="edge2" class="edge">
<title>Node1&#45;&gt;Node3</title>
<path fill="none" stroke="#63b8ff" d="M127.46,-47.38C136.45,-37.64 146.56,-26.69 153.41,-19.27"/>
<polygon fill="#63b8ff" stroke="#63b8ff" points="124.78,-45.12 120.57,-54.84 129.93,-49.86 124.78,-45.12"/>
</g>
</g>
</svg>
