<?xml version="1.0" encoding="UTF-8" standalone="no"?>
<!DOCTYPE svg PUBLIC "-//W3C//DTD SVG 1.1//EN"
 "http://www.w3.org/Graphics/SVG/1.1/DTD/svg11.dtd">
<!-- Generated by graphviz version 2.44.1 (20220725.1945)
 -->
<!-- Title: include/cmake_init_lib.h Pages: 1 -->
<svg width="457pt" height="104pt"
 viewBox="0.00 0.00 457.50 104.00" xmlns="http://www.w3.org/2000/svg" xmlns:xlink="http://www.w3.org/1999/xlink">
<g id="graph0" class="graph" transform="scale(1 1) rotate(0) translate(4 100)">
<title>include/cmake_init_lib.h</title>
<!-- Node1 -->
<g id="node1" class="node">
<title>Node1</title>
<g id="a_node1"><a xlink:title=" ">
<polygon fill="#999999" stroke="#666666" points="264.5,-96 166.5,-96 166.5,-66 264.5,-66 264.5,-96"/>
<text text-anchor="start" x="174.5" y="-84" font-family="Helvetica,sans-Serif" font-size="10.00">include/cmake_init</text>
<text text-anchor="middle" x="215.5" y="-73" font-family="Helvetica,sans-Serif" font-size="10.00">_lib.h</text>
</a>
</g>
</g>
<!-- Node2 -->
<g id="node2" class="node">
<title>Node2</title>
<g id="a_node2"><a xlink:href="cmake__init__lib_8cc.html" target="_top" xlink:title=" ">
<polygon fill="white" stroke="#666666" points="109,-24.5 0,-24.5 0,-5.5 109,-5.5 109,-24.5"/>
<text text-anchor="middle" x="54.5" y="-12.5" font-family="Helvetica,sans-Serif" font-size="10.00">src/cmake_init_lib.cc</text>
</a>
</g>
</g>
<!-- Node1&#45;&gt;Node2 -->
<g id="edge1" class="edge">
<title>Node1&#45;&gt;Node2</title>
<path fill="none" stroke="#63b8ff" d="M170.87,-62.26C139.91,-49.95 100.05,-34.11 75.93,-24.52"/>
<polygon fill="#63b8ff" stroke="#63b8ff" points="169.58,-65.51 180.17,-65.95 172.17,-59.01 169.58,-65.51"/>
</g>
<!-- Node3 -->
<g id="node3" class="node">
<title>Node3</title>
<g id="a_node3"><a xlink:href="main_8cc.html" target="_top" xlink:title=" ">
<polygon fill="white" stroke="#666666" points="195.5,-24.5 127.5,-24.5 127.5,-5.5 195.5,-5.5 195.5,-24.5"/>
<text text-anchor="middle" x="161.5" y="-12.5" font-family="Helvetica,sans-Serif" font-size="10.00">src/main.cc</text>
</a>
</g>
</g>
<!-- Node1&#45;&gt;Node3 -->
<g id="edge2" class="edge">
<title>Node1&#45;&gt;Node3</title>
<path fill="none" stroke="#63b8ff" d="M196.89,-57.94C187.3,-46.58 176.15,-33.36 168.96,-24.84"/>
<polygon fill="#63b8ff" stroke="#63b8ff" points="194.39,-60.41 203.52,-65.8 199.74,-55.9 194.39,-60.41"/>
</g>
<!-- Node4 -->
<g id="node4" class="node">
<title>Node4</title>
<g id="a_node4"><a xlink:href="print__greeting__test_8cc.html" target="_top" xlink:title=" ">
<polygon fill="white" stroke="#666666" points="327,-30 214,-30 214,0 327,0 327,-30"/>
<text text-anchor="start" x="222" y="-18" font-family="Helvetica,sans-Serif" font-size="10.00">tests/cmake_init_lib</text>
<text text-anchor="middle" x="270.5" y="-7" font-family="Helvetica,sans-Serif" font-size="10.00">/print_greeting_test.cc</text>
</a>
</g>
</g>
<!-- Node1&#45;&gt;Node4 -->
<g id="edge3" class="edge">
<title>Node1&#45;&gt;Node4</title>
<path fill="none" stroke="#63b8ff" d="M234.33,-58.09C242.27,-48.85 251.28,-38.36 258.33,-30.16"/>
<polygon fill="#63b8ff" stroke="#63b8ff" points="231.57,-55.93 227.71,-65.8 236.88,-60.49 231.57,-55.93"/>
</g>
<!-- Node5 -->
<g id="node5" class="node">
<title>Node5</title>
<g id="a_node5"><a xlink:href="cmake__init__lib__test_8cc.html" target="_top" xlink:title=" ">
<polygon fill="white" stroke="#666666" points="449.5,-30 345.5,-30 345.5,0 449.5,0 449.5,-30"/>
<text text-anchor="start" x="353.5" y="-18" font-family="Helvetica,sans-Serif" font-size="10.00">tests/cmake_init_lib</text>
<text text-anchor="middle" x="397.5" y="-7" font-family="Helvetica,sans-Serif" font-size="10.00">_test.cc</text>
</a>
</g>
</g>
<!-- Node1&#45;&gt;Node5 -->
<g id="edge4" class="edge">
<title>Node1&#45;&gt;Node5</title>
<path fill="none" stroke="#63b8ff" d="M265.01,-62.59C294.11,-52.36 330.41,-39.59 357.65,-30.01"/>
<polygon fill="#63b8ff" stroke="#63b8ff" points="263.71,-59.34 255.44,-65.95 266.04,-65.94 263.71,-59.34"/>
</g>
</g>
</svg>
