<?xml version="1.0" encoding="UTF-8" standalone="no"?>
<!DOCTYPE svg PUBLIC "-//W3C//DTD SVG 1.1//EN"
 "http://www.w3.org/Graphics/SVG/1.1/DTD/svg11.dtd">
<!-- Generated by graphviz version 2.44.1 (20220725.1945)
 -->
<!-- Title: src/cmake_init_lib.cc Pages: 1 -->
<svg width="214pt" height="93pt"
 viewBox="0.00 0.00 214.00 93.00" xmlns="http://www.w3.org/2000/svg" xmlns:xlink="http://www.w3.org/1999/xlink">
<g id="graph0" class="graph" transform="scale(1 1) rotate(0) translate(4 89)">
<title>src/cmake_init_lib.cc</title>
<!-- Node1 -->
<g id="node1" class="node">
<title>Node1</title>
<g id="a_node1"><a xlink:title=" ">
<polygon fill="#999999" stroke="#666666" points="154,-85 45,-85 45,-66 154,-66 154,-85"/>
<text text-anchor="middle" x="99.5" y="-73" font-family="Helvetica,sans-Serif" font-size="10.00">src/cmake_init_lib.cc</text>
</a>
</g>
</g>
<!-- Node2 -->
<g id="node2" class="node">
<title>Node2</title>
<g id="a_node2"><a xlink:href="cmake__init__lib_8h.html" target="_top" xlink:title=" ">
<polygon fill="white" stroke="#666666" points="87,-24.5 0,-24.5 0,-5.5 87,-5.5 87,-24.5"/>
<text text-anchor="middle" x="43.5" y="-12.5" font-family="Helvetica,sans-Serif" font-size="10.00">cmake_init_lib.h</text>
</a>
</g>
</g>
<!-- Node1&#45;&gt;Node2 -->
<g id="edge1" class="edge">
<title>Node1&#45;&gt;Node2</title>
<path fill="none" stroke="#63b8ff" d="M91.24,-65.87C82.72,-56.97 69.24,-42.89 58.77,-31.95"/>
<polygon fill="#63b8ff" stroke="#63b8ff" points="61.24,-29.47 51.8,-24.67 56.18,-34.31 61.24,-29.47"/>
</g>
<!-- Node3 -->
<g id="node3" class="node">
<title>Node3</title>
<g id="a_node3"><a xlink:href="print__greeting_8h.html" target="_top" xlink:title=" ">
<polygon fill="white" stroke="#666666" points="206,-30 105,-30 105,0 206,0 206,-30"/>
<text text-anchor="start" x="113" y="-18" font-family="Helvetica,sans-Serif" font-size="10.00">cmake_init_lib/print</text>
<text text-anchor="middle" x="155.5" y="-7" font-family="Helvetica,sans-Serif" font-size="10.00">_greeting.h</text>
</a>
</g>
</g>
<!-- Node1&#45;&gt;Node3 -->
<g id="edge2" class="edge">
<title>Node1&#45;&gt;Node3</title>
<path fill="none" stroke="#63b8ff" d="M107.76,-65.87C114.87,-58.44 125.43,-47.42 134.81,-37.62"/>
<polygon fill="#63b8ff" stroke="#63b8ff" points="137.6,-39.76 141.99,-30.11 132.55,-34.92 137.6,-39.76"/>
</g>
</g>
</svg>
