<?xml version="1.0" encoding="UTF-8" standalone="no"?>
<!DOCTYPE svg PUBLIC "-//W3C//DTD SVG 1.1//EN"
 "http://www.w3.org/Graphics/SVG/1.1/DTD/svg11.dtd">
<!-- Generated by graphviz version 2.44.1 (20220725.1945)
 -->
<!-- Title: src/impl Pages: 1 -->
<svg width="237pt" height="141pt"
 viewBox="0.00 0.00 237.50 141.00" xmlns="http://www.w3.org/2000/svg" xmlns:xlink="http://www.w3.org/1999/xlink">
<g id="graph0" class="graph" transform="scale(1 1) rotate(0) translate(4 137)">
<title>src/impl</title>
<g id="clust1" class="cluster">
<title>clusterdir_68267d1309a1af8e8297ef4c3efbcdba</title>
<g id="a_clust1"><a xlink:href="dir_68267d1309a1af8e8297ef4c3efbcdba.html" target="_top" xlink:title="src">
<polygon fill="#edf0f7" stroke="#404040" stroke-dasharray="5,2" points="8,-8 8,-125 172,-125 172,-8 8,-8"/>
<text text-anchor="middle" x="90" y="-113" font-family="Helvetica,sans-Serif" font-size="10.00">src</text>
</a>
</g>
</g>
<g id="clust2" class="cluster">
<title>clusterdir_3808e3f8fe545b07b1d2715928fb0eea</title>
<g id="a_clust2"><a xlink:href="dir_3808e3f8fe545b07b1d2715928fb0eea.html" target="_top">
<polygon fill="#edf0f7" stroke="#404040" stroke-width="2" points="16,-63 16,-98 164,-98 164,-63 16,-63"/>
</a>
</g>
</g>
<!-- dir_4939e1535a9c78a4a46737b61ec76827 -->
<g id="node1" class="node">
<title>dir_4939e1535a9c78a4a46737b61ec76827</title>
<g id="a_node1"><a xlink:href="dir_4939e1535a9c78a4a46737b61ec76827.html" target="_top" xlink:title="configuration">
<polygon fill="#a2b4d6" stroke="#404040" points="164,-35 92,-35 92,-16 164,-16 164,-35"/>
<text text-anchor="middle" x="128" y="-23" font-family="Helvetica,sans-Serif" font-size="10.00">configuration</text>
</a>
</g>
</g>
<!-- dir_6bc6ad22483805bbbda55258ad2a62ea -->
<g id="node2" class="node">
<title>dir_6bc6ad22483805bbbda55258ad2a62ea</title>
<g id="a_node2"><a xlink:href="dir_6bc6ad22483805bbbda55258ad2a62ea.html" target="_top" xlink:title="inc">
<polygon fill="#a2b4d6" stroke="red" points="73.5,-35 44.5,-35 44.5,-16 73.5,-16 73.5,-35"/>
<text text-anchor="middle" x="59" y="-23" font-family="Helvetica,sans-Serif" font-size="10.00">inc</text>
</a>
</g>
</g>
<!-- dir_3808e3f8fe545b07b1d2715928fb0eea -->
<g id="node3" class="node">
<title>dir_3808e3f8fe545b07b1d2715928fb0eea</title>
<text text-anchor="middle" x="138" y="-78" font-family="Helvetica,sans-Serif" font-size="10.00">impl</text>
</g>
<!-- dir_3808e3f8fe545b07b1d2715928fb0eea&#45;&gt;dir_4939e1535a9c78a4a46737b61ec76827 -->
<g id="edge1" class="edge">
<title>dir_3808e3f8fe545b07b1d2715928fb0eea&#45;&gt;dir_4939e1535a9c78a4a46737b61ec76827</title>
<path fill="none" stroke="#63b8ff" d="M136.35,-70.75C135.04,-63.8 133.16,-53.85 131.52,-45.13"/>
<polygon fill="#63b8ff" stroke="#63b8ff" points="134.91,-44.27 129.62,-35.09 128.04,-45.56 134.91,-44.27"/>
<g id="a_edge1&#45;headlabel"><a xlink:href="dir_000004_000003.html" target="_top" xlink:title="1">
<text text-anchor="middle" x="138.37" y="-44.77" font-family="Helvetica,sans-Serif" font-size="10.00" fill="#63b8ff">1</text>
</a>
</g>
</g>
<!-- dir_3808e3f8fe545b07b1d2715928fb0eea&#45;&gt;dir_6bc6ad22483805bbbda55258ad2a62ea -->
<g id="edge2" class="edge">
<title>dir_3808e3f8fe545b07b1d2715928fb0eea&#45;&gt;dir_6bc6ad22483805bbbda55258ad2a62ea</title>
<path fill="none" stroke="#63b8ff" d="M125.31,-70.98C113.17,-62.84 94.64,-50.41 80.25,-40.76"/>
<polygon fill="#63b8ff" stroke="#63b8ff" points="82.18,-37.84 71.92,-35.17 78.28,-43.65 82.18,-37.84"/>
<g id="a_edge2&#45;headlabel"><a xlink:href="dir_000004_000005.html" target="_top" xlink:title="2">
<text text-anchor="middle" x="86.74" y="-34.98" font-family="Helvetica,sans-Serif" font-size="10.00" fill="#63b8ff">2</text>
</a>
</g>
</g>
<!-- dir_d44c64559bbebec7f509842c48db8b23 -->
<g id="node5" class="node">
<title>dir_d44c64559bbebec7f509842c48db8b23</title>
<g id="a_node5"><a xlink:href="dir_d44c64559bbebec7f509842c48db8b23.html" target="_top" xlink:title="include">
<polygon fill="#edf0f7" stroke="red" points="229.5,-35 182.5,-35 182.5,-16 229.5,-16 229.5,-35"/>
<text text-anchor="middle" x="206" y="-23" font-family="Helvetica,sans-Serif" font-size="10.00">include</text>
</a>
</g>
</g>
<!-- dir_3808e3f8fe545b07b1d2715928fb0eea&#45;&gt;dir_d44c64559bbebec7f509842c48db8b23 -->
<g id="edge3" class="edge">
<title>dir_3808e3f8fe545b07b1d2715928fb0eea&#45;&gt;dir_d44c64559bbebec7f509842c48db8b23</title>
<path fill="none" stroke="#63b8ff" d="M148.93,-70.98C159.08,-63.07 174.42,-51.11 186.65,-41.58"/>
<polygon fill="#63b8ff" stroke="#63b8ff" points="189.14,-44.08 194.88,-35.17 184.84,-38.56 189.14,-44.08"/>
<g id="a_edge3&#45;headlabel"><a xlink:href="dir_000004_000006.html" target="_top" xlink:title="2">
<text text-anchor="middle" x="188.05" y="-46.03" font-family="Helvetica,sans-Serif" font-size="10.00" fill="#63b8ff">2</text>
</a>
</g>
</g>
<!-- dir_f543ebed283e0a99465be5959bffd761 -->
<g id="node4" class="node">
<title>dir_f543ebed283e0a99465be5959bffd761</title>
<g id="a_node4"><a xlink:href="dir_f543ebed283e0a99465be5959bffd761.html" target="_top" xlink:title="cmake_init_lib">
<polygon fill="#a2b4d6" stroke="#404040" points="102.5,-90 23.5,-90 23.5,-71 102.5,-71 102.5,-90"/>
<text text-anchor="middle" x="63" y="-78" font-family="Helvetica,sans-Serif" font-size="10.00">cmake_init_lib</text>
</a>
</g>
</g>
<!-- dir_f543ebed283e0a99465be5959bffd761&#45;&gt;dir_6bc6ad22483805bbbda55258ad2a62ea -->
<g id="edge4" class="edge">
<title>dir_f543ebed283e0a99465be5959bffd761&#45;&gt;dir_6bc6ad22483805bbbda55258ad2a62ea</title>
<path fill="none" stroke="#63b8ff" d="M62.34,-70.75C61.82,-63.8 61.06,-53.85 60.41,-45.13"/>
<polygon fill="#63b8ff" stroke="#63b8ff" points="63.89,-44.8 59.65,-35.09 56.91,-45.32 63.89,-44.8"/>
<g id="a_edge4&#45;headlabel"><a xlink:href="dir_000001_000005.html" target="_top" xlink:title="1">
<text text-anchor="middle" x="66.99" y="-45.67" font-family="Helvetica,sans-Serif" font-size="10.00" fill="#63b8ff">1</text>
</a>
</g>
</g>
</g>
</svg>
