<?xml version="1.0" encoding="UTF-8" standalone="no"?>
<!DOCTYPE svg PUBLIC "-//W3C//DTD SVG 1.1//EN"
 "http://www.w3.org/Graphics/SVG/1.1/DTD/svg11.dtd">
<!-- Generated by graphviz version 2.44.1 (20220725.1945)
 -->
<!-- Title: src/impl/main.cc Pages: 1 -->
<svg width="329pt" height="148pt"
 viewBox="0.00 0.00 329.50 148.00" xmlns="http://www.w3.org/2000/svg" xmlns:xlink="http://www.w3.org/1999/xlink">
<g id="graph0" class="graph" transform="scale(1 1) rotate(0) translate(4 144)">
<title>src/impl/main.cc</title>
<!-- Node1 -->
<g id="node1" class="node">
<title>Node1</title>
<g id="a_node1"><a xlink:title=" ">
<polygon fill="#999999" stroke="#666666" points="229.5,-140 140.5,-140 140.5,-121 229.5,-121 229.5,-140"/>
<text text-anchor="middle" x="185" y="-128" font-family="Helvetica,sans-Serif" font-size="10.00">src/impl/main.cc</text>
</a>
</g>
</g>
<!-- Node2 -->
<g id="node2" class="node">
<title>Node2</title>
<g id="a_node2"><a xlink:href="cmake__init__lib_8h.html" target="_top" xlink:title=" ">
<polygon fill="white" stroke="#666666" points="112,-85 0,-85 0,-55 112,-55 112,-85"/>
<text text-anchor="start" x="8" y="-73" font-family="Helvetica,sans-Serif" font-size="10.00">cmake&#45;init/cmake_init</text>
<text text-anchor="middle" x="56" y="-62" font-family="Helvetica,sans-Serif" font-size="10.00">_lib.h</text>
</a>
</g>
</g>
<!-- Node1&#45;&gt;Node2 -->
<g id="edge1" class="edge">
<title>Node1&#45;&gt;Node2</title>
<path fill="none" stroke="#63b8ff" d="M166.24,-120.99C148.06,-112.75 119.9,-99.98 96.58,-89.4"/>
<polygon fill="#63b8ff" stroke="#63b8ff" points="97.82,-86.12 87.26,-85.18 94.93,-92.5 97.82,-86.12"/>
</g>
<!-- Node3 -->
<g id="node3" class="node">
<title>Node3</title>
<g id="a_node3"><a xlink:href="config_8h.html" target="_top" xlink:title=" ">
<polygon fill="white" stroke="#666666" points="240,-79.5 130,-79.5 130,-60.5 240,-60.5 240,-79.5"/>
<text text-anchor="middle" x="185" y="-67.5" font-family="Helvetica,sans-Serif" font-size="10.00">configuration/config.h</text>
</a>
</g>
</g>
<!-- Node1&#45;&gt;Node3 -->
<g id="edge2" class="edge">
<title>Node1&#45;&gt;Node3</title>
<path fill="none" stroke="#63b8ff" d="M185,-120.87C185,-112.75 185,-100.31 185,-89.89"/>
<polygon fill="#63b8ff" stroke="#63b8ff" points="188.5,-89.67 185,-79.67 181.5,-89.67 188.5,-89.67"/>
</g>
<!-- Node5 -->
<g id="node5" class="node">
<title>Node5</title>
<g id="a_node5"><a xlink:title=" ">
<polygon fill="#e0e0e0" stroke="#999999" points="321.5,-79.5 258.5,-79.5 258.5,-60.5 321.5,-60.5 321.5,-79.5"/>
<text text-anchor="middle" x="290" y="-67.5" font-family="Helvetica,sans-Serif" font-size="10.00">fmt/color.h</text>
</a>
</g>
</g>
<!-- Node1&#45;&gt;Node5 -->
<g id="edge4" class="edge">
<title>Node1&#45;&gt;Node5</title>
<path fill="none" stroke="#63b8ff" d="M200.49,-120.87C217.63,-111.32 245.47,-95.81 265.56,-84.62"/>
<polygon fill="#63b8ff" stroke="#63b8ff" points="267.41,-87.59 274.44,-79.67 264,-81.48 267.41,-87.59"/>
</g>
<!-- Node4 -->
<g id="node4" class="node">
<title>Node4</title>
<g id="a_node4"><a xlink:title=" ">
<polygon fill="#e0e0e0" stroke="#999999" points="218,-19 152,-19 152,0 218,0 218,-19"/>
<text text-anchor="middle" x="185" y="-7" font-family="Helvetica,sans-Serif" font-size="10.00">string_view</text>
</a>
</g>
</g>
<!-- Node3&#45;&gt;Node4 -->
<g id="edge3" class="edge">
<title>Node3&#45;&gt;Node4</title>
<path fill="none" stroke="#63b8ff" d="M185,-60.37C185,-52.25 185,-39.81 185,-29.39"/>
<polygon fill="#63b8ff" stroke="#63b8ff" points="188.5,-29.17 185,-19.17 181.5,-29.17 188.5,-29.17"/>
</g>
</g>
</svg>
