<?xml version="1.0" encoding="UTF-8" standalone="no"?>
<!DOCTYPE svg PUBLIC "-//W3C//DTD SVG 1.1//EN"
 "http://www.w3.org/Graphics/SVG/1.1/DTD/svg11.dtd">
<!-- Generated by graphviz version 2.44.1 (20220725.1945)
 -->
<!-- Title: src/cmake_init_lib/print_greeting.cc Pages: 1 -->
<svg width="269pt" height="104pt"
 viewBox="0.00 0.00 269.00 104.00" xmlns="http://www.w3.org/2000/svg" xmlns:xlink="http://www.w3.org/1999/xlink">
<g id="graph0" class="graph" transform="scale(1 1) rotate(0) translate(4 100)">
<title>src/cmake_init_lib/print_greeting.cc</title>
<!-- Node1 -->
<g id="node1" class="node">
<title>Node1</title>
<g id="a_node1"><a xlink:title=" ">
<polygon fill="#999999" stroke="#666666" points="198,-96 103,-96 103,-66 198,-66 198,-96"/>
<text text-anchor="start" x="111" y="-84" font-family="Helvetica,sans-Serif" font-size="10.00">src/cmake_init_lib</text>
<text text-anchor="middle" x="150.5" y="-73" font-family="Helvetica,sans-Serif" font-size="10.00">/print_greeting.cc</text>
</a>
</g>
</g>
<!-- Node2 -->
<g id="node2" class="node">
<title>Node2</title>
<g id="a_node2"><a xlink:href="print__greeting_8h.html" target="_top" xlink:title=" ">
<polygon fill="white" stroke="#666666" points="101,-30 0,-30 0,0 101,0 101,-30"/>
<text text-anchor="start" x="8" y="-18" font-family="Helvetica,sans-Serif" font-size="10.00">cmake_init_lib/print</text>
<text text-anchor="middle" x="50.5" y="-7" font-family="Helvetica,sans-Serif" font-size="10.00">_greeting.h</text>
</a>
</g>
</g>
<!-- Node1&#45;&gt;Node2 -->
<g id="edge1" class="edge">
<title>Node1&#45;&gt;Node2</title>
<path fill="none" stroke="#63b8ff" d="M128.31,-65.8C114.45,-56.93 96.43,-45.39 81.21,-35.66"/>
<polygon fill="#63b8ff" stroke="#63b8ff" points="82.94,-32.61 72.63,-30.16 79.17,-38.5 82.94,-32.61"/>
</g>
<!-- Node3 -->
<g id="node3" class="node">
<title>Node3</title>
<g id="a_node3"><a xlink:title=" ">
<polygon fill="#e0e0e0" stroke="#999999" points="182,-24.5 119,-24.5 119,-5.5 182,-5.5 182,-24.5"/>
<text text-anchor="middle" x="150.5" y="-12.5" font-family="Helvetica,sans-Serif" font-size="10.00">fmt/color.h</text>
</a>
</g>
</g>
<!-- Node1&#45;&gt;Node3 -->
<g id="edge2" class="edge">
<title>Node1&#45;&gt;Node3</title>
<path fill="none" stroke="#63b8ff" d="M150.5,-65.8C150.5,-56.7 150.5,-44.79 150.5,-34.9"/>
<polygon fill="#63b8ff" stroke="#63b8ff" points="154,-34.84 150.5,-24.84 147,-34.84 154,-34.84"/>
</g>
<!-- Node4 -->
<g id="node4" class="node">
<title>Node4</title>
<g id="a_node4"><a xlink:title=" ">
<polygon fill="#e0e0e0" stroke="#999999" points="261,-24.5 200,-24.5 200,-5.5 261,-5.5 261,-24.5"/>
<text text-anchor="middle" x="230.5" y="-12.5" font-family="Helvetica,sans-Serif" font-size="10.00">fmt/core.h</text>
</a>
</g>
</g>
<!-- Node1&#45;&gt;Node4 -->
<g id="edge3" class="edge">
<title>Node1&#45;&gt;Node4</title>
<path fill="none" stroke="#63b8ff" d="M168.25,-65.8C181.09,-55.53 198.42,-41.67 211.53,-31.18"/>
<polygon fill="#63b8ff" stroke="#63b8ff" points="213.82,-33.82 219.44,-24.84 209.45,-28.36 213.82,-33.82"/>
</g>
</g>
</svg>
