<?xml version="1.0" encoding="UTF-8" standalone="no"?>
<!DOCTYPE svg PUBLIC "-//W3C//DTD SVG 1.1//EN"
 "http://www.w3.org/Graphics/SVG/1.1/DTD/svg11.dtd">
<!-- Generated by graphviz version 2.44.1 (20220725.1945)
 -->
<!-- Title: src/impl/cmake_init_lib/print_greeting.cc Pages: 1 -->
<svg width="269pt" height="159pt"
 viewBox="0.00 0.00 269.00 159.00" xmlns="http://www.w3.org/2000/svg" xmlns:xlink="http://www.w3.org/1999/xlink">
<g id="graph0" class="graph" transform="scale(1 1) rotate(0) translate(4 155)">
<title>src/impl/cmake_init_lib/print_greeting.cc</title>
<!-- Node1 -->
<g id="node1" class="node">
<title>Node1</title>
<g id="a_node1"><a xlink:title=" ">
<polygon fill="#999999" stroke="#666666" points="204,-151 97,-151 97,-121 204,-121 204,-151"/>
<text text-anchor="start" x="105" y="-139" font-family="Helvetica,sans-Serif" font-size="10.00">src/impl/cmake_init</text>
<text text-anchor="middle" x="150.5" y="-128" font-family="Helvetica,sans-Serif" font-size="10.00">_lib/print_greeting.cc</text>
</a>
</g>
</g>
<!-- Node2 -->
<g id="node2" class="node">
<title>Node2</title>
<g id="a_node2"><a xlink:href="print__greeting_8h.html" target="_top" xlink:title=" ">
<polygon fill="white" stroke="#666666" points="101,-85 0,-85 0,-55 101,-55 101,-85"/>
<text text-anchor="start" x="8" y="-73" font-family="Helvetica,sans-Serif" font-size="10.00">cmake_init_lib/print</text>
<text text-anchor="middle" x="50.5" y="-62" font-family="Helvetica,sans-Serif" font-size="10.00">_greeting.h</text>
</a>
</g>
</g>
<!-- Node1&#45;&gt;Node2 -->
<g id="edge1" class="edge">
<title>Node1&#45;&gt;Node2</title>
<path fill="none" stroke="#63b8ff" d="M128.31,-120.8C114.45,-111.93 96.43,-100.39 81.21,-90.66"/>
<polygon fill="#63b8ff" stroke="#63b8ff" points="82.94,-87.61 72.63,-85.16 79.17,-93.5 82.94,-87.61"/>
</g>
<!-- Node4 -->
<g id="node4" class="node">
<title>Node4</title>
<g id="a_node4"><a xlink:title=" ">
<polygon fill="#e0e0e0" stroke="#999999" points="182,-79.5 119,-79.5 119,-60.5 182,-60.5 182,-79.5"/>
<text text-anchor="middle" x="150.5" y="-67.5" font-family="Helvetica,sans-Serif" font-size="10.00">fmt/color.h</text>
</a>
</g>
</g>
<!-- Node1&#45;&gt;Node4 -->
<g id="edge3" class="edge">
<title>Node1&#45;&gt;Node4</title>
<path fill="none" stroke="#63b8ff" d="M150.5,-120.8C150.5,-111.7 150.5,-99.79 150.5,-89.9"/>
<polygon fill="#63b8ff" stroke="#63b8ff" points="154,-89.84 150.5,-79.84 147,-89.84 154,-89.84"/>
</g>
<!-- Node5 -->
<g id="node5" class="node">
<title>Node5</title>
<g id="a_node5"><a xlink:title=" ">
<polygon fill="#e0e0e0" stroke="#999999" points="261,-79.5 200,-79.5 200,-60.5 261,-60.5 261,-79.5"/>
<text text-anchor="middle" x="230.5" y="-67.5" font-family="Helvetica,sans-Serif" font-size="10.00">fmt/core.h</text>
</a>
</g>
</g>
<!-- Node1&#45;&gt;Node5 -->
<g id="edge4" class="edge">
<title>Node1&#45;&gt;Node5</title>
<path fill="none" stroke="#63b8ff" d="M168.25,-120.8C181.09,-110.53 198.42,-96.67 211.53,-86.18"/>
<polygon fill="#63b8ff" stroke="#63b8ff" points="213.82,-88.82 219.44,-79.84 209.45,-83.36 213.82,-88.82"/>
</g>
<!-- Node3 -->
<g id="node3" class="node">
<title>Node3</title>
<g id="a_node3"><a xlink:title=" ">
<polygon fill="#e0e0e0" stroke="#999999" points="83.5,-19 17.5,-19 17.5,0 83.5,0 83.5,-19"/>
<text text-anchor="middle" x="50.5" y="-7" font-family="Helvetica,sans-Serif" font-size="10.00">string_view</text>
</a>
</g>
</g>
<!-- Node2&#45;&gt;Node3 -->
<g id="edge2" class="edge">
<title>Node2&#45;&gt;Node3</title>
<path fill="none" stroke="#63b8ff" d="M50.5,-54.84C50.5,-47.21 50.5,-37.7 50.5,-29.45"/>
<polygon fill="#63b8ff" stroke="#63b8ff" points="54,-29.27 50.5,-19.27 47,-29.27 54,-29.27"/>
</g>
</g>
</svg>
