<?xml version="1.0" encoding="UTF-8" standalone="no"?>
<!DOCTYPE svg PUBLIC "-//W3C//DTD SVG 1.1//EN"
 "http://www.w3.org/Graphics/SVG/1.1/DTD/svg11.dtd">
<!-- Generated by graphviz version 2.44.1 (20220725.1945)
 -->
<!-- Title: include/cmake_init_lib/print_greeting.h Pages: 1 -->
<svg width="230pt" height="104pt"
 viewBox="0.00 0.00 230.00 104.00" xmlns="http://www.w3.org/2000/svg" xmlns:xlink="http://www.w3.org/1999/xlink">
<g id="graph0" class="graph" transform="scale(1 1) rotate(0) translate(4 100)">
<title>include/cmake_init_lib/print_greeting.h</title>
<!-- Node1 -->
<g id="node1" class="node">
<title>Node1</title>
<g id="a_node1"><a xlink:title=" ">
<polygon fill="#999999" stroke="#666666" points="165,-96 64,-96 64,-66 165,-66 165,-96"/>
<text text-anchor="start" x="72" y="-84" font-family="Helvetica,sans-Serif" font-size="10.00">include/cmake_init</text>
<text text-anchor="middle" x="114.5" y="-73" font-family="Helvetica,sans-Serif" font-size="10.00">_lib/print_greeting.h</text>
</a>
</g>
</g>
<!-- Node2 -->
<g id="node2" class="node">
<title>Node2</title>
<g id="a_node2"><a xlink:href="cmake__init__lib_8cc.html" target="_top" xlink:title=" ">
<polygon fill="white" stroke="#666666" points="109,-24.5 0,-24.5 0,-5.5 109,-5.5 109,-24.5"/>
<text text-anchor="middle" x="54.5" y="-12.5" font-family="Helvetica,sans-Serif" font-size="10.00">src/cmake_init_lib.cc</text>
</a>
</g>
</g>
<!-- Node1&#45;&gt;Node2 -->
<g id="edge1" class="edge">
<title>Node1&#45;&gt;Node2</title>
<path fill="none" stroke="#63b8ff" d="M94.13,-58.27C83.41,-46.84 70.85,-33.44 62.79,-24.84"/>
<polygon fill="#63b8ff" stroke="#63b8ff" points="91.79,-60.89 101.18,-65.8 96.9,-56.11 91.79,-60.89"/>
</g>
<!-- Node3 -->
<g id="node3" class="node">
<title>Node3</title>
<g id="a_node3"><a xlink:href="print__greeting_8cc.html" target="_top" xlink:title=" ">
<polygon fill="white" stroke="#666666" points="222,-30 127,-30 127,0 222,0 222,-30"/>
<text text-anchor="start" x="135" y="-18" font-family="Helvetica,sans-Serif" font-size="10.00">src/cmake_init_lib</text>
<text text-anchor="middle" x="174.5" y="-7" font-family="Helvetica,sans-Serif" font-size="10.00">/print_greeting.cc</text>
</a>
</g>
</g>
<!-- Node1&#45;&gt;Node3 -->
<g id="edge2" class="edge">
<title>Node1&#45;&gt;Node3</title>
<path fill="none" stroke="#63b8ff" d="M134.78,-58.37C143.51,-49.06 153.46,-38.44 161.22,-30.16"/>
<polygon fill="#63b8ff" stroke="#63b8ff" points="132.1,-56.11 127.82,-65.8 137.21,-60.89 132.1,-56.11"/>
</g>
</g>
</svg>
